TITLE ""
FILE "DISC2Track30.mp3" MP3
  TRACK 01 AUDIO
    TITLE "DISC2Track30_01"
    INDEX 01 00:00:00
  TRACK 02 AUDIO
    TITLE "DISC2Track30_02"
    INDEX 01 00:03:71
  TRACK 03 AUDIO
    TITLE "DISC2Track30_03"
    INDEX 01 00:04:12
  TRACK 04 AUDIO
    TITLE "DISC2Track30_04"
    INDEX 01 00:07:36
  TRACK 05 AUDIO
    TITLE "DISC2Track30_05"
    INDEX 01 00:10:67
  TRACK 06 AUDIO
    TITLE "DISC2Track30_06"
    INDEX 01 00:14:16
  TRACK 07 AUDIO
    TITLE "DISC2Track30_07"
    INDEX 01 00:14:40
  TRACK 08 AUDIO
    TITLE "DISC2Track30_08"
    INDEX 01 00:19:21
  TRACK 09 AUDIO
    TITLE "DISC2Track30_09"
    INDEX 01 00:23:64
  TRACK 10 AUDIO
    TITLE "DISC2Track30_10"
    INDEX 01 00:28:20
  TRACK 11 AUDIO
    TITLE "DISC2Track30_11"
    INDEX 01 00:28:50
  TRACK 12 AUDIO
    TITLE "DISC2Track30_12"
    INDEX 01 00:31:42
  TRACK 13 AUDIO
    TITLE "DISC2Track30_13"
    INDEX 01 00:34:74
  TRACK 14 AUDIO
    TITLE "DISC2Track30_14"
    INDEX 01 00:38:19
  TRACK 15 AUDIO
    TITLE "DISC2Track30_15"
    INDEX 01 00:38:42
  TRACK 16 AUDIO
    TITLE "DISC2Track30_16"
    INDEX 01 00:42:46
  TRACK 17 AUDIO
    TITLE "DISC2Track30_17"
    INDEX 01 00:46:42
  TRACK 18 AUDIO
    TITLE "DISC2Track30_18"
    INDEX 01 00:50:30
  TRACK 19 AUDIO
    TITLE "DISC2Track30_19"
    INDEX 01 00:50:55
  TRACK 20 AUDIO
    TITLE "DISC2Track30_20"
    INDEX 01 00:54:63
  TRACK 21 AUDIO
    TITLE "DISC2Track30_21"
    INDEX 01 00:58:43
  TRACK 22 AUDIO
    TITLE "DISC2Track30_22"
    INDEX 01 01:02:13
  TRACK 23 AUDIO
    TITLE "DISC2Track30_23"
    INDEX 01 01:02:35
  TRACK 24 AUDIO
    TITLE "DISC2Track30_24"
    INDEX 01 01:05:49
  TRACK 25 AUDIO
    TITLE "DISC2Track30_25"
    INDEX 01 01:09:06
  TRACK 26 AUDIO
    TITLE "DISC2Track30_26"
    INDEX 01 01:12:25
  TRACK 27 AUDIO
    TITLE "DISC2Track30_27"
    INDEX 01 01:12:51
  TRACK 28 AUDIO
    TITLE "DISC2Track30_28"
    INDEX 01 01:15:63
  TRACK 29 AUDIO
    TITLE "DISC2Track30_29"
    INDEX 01 01:19:51
  TRACK 30 AUDIO
    TITLE "DISC2Track30_30"
    INDEX 01 01:23:19
  TRACK 31 AUDIO
    TITLE "DISC2Track30_31"
    INDEX 01 01:23:37
  TRACK 32 AUDIO
    TITLE "DISC2Track30_32"
    INDEX 01 01:27:60
  TRACK 33 AUDIO
    TITLE "DISC2Track30_33"
    INDEX 01 01:31:44
  TRACK 34 AUDIO
    TITLE "DISC2Track30_34"
    INDEX 01 01:35:23
  TRACK 35 AUDIO
    TITLE "DISC2Track30_35"
    INDEX 01 01:35:46
  TRACK 36 AUDIO
    TITLE "DISC2Track30_36"
    INDEX 01 01:39:73
  TRACK 37 AUDIO
    TITLE "DISC2Track30_37"
    INDEX 01 01:44:41
  TRACK 38 AUDIO
    TITLE "DISC2Track30_38"
    INDEX 01 01:49:05
  TRACK 39 AUDIO
    TITLE "DISC2Track30_39"
    INDEX 01 01:49:29
  TRACK 40 AUDIO
    TITLE "DISC2Track30_40"
    INDEX 01 01:53:38
  TRACK 41 AUDIO
    TITLE "DISC2Track30_41"
    INDEX 01 01:57:58
  TRACK 42 AUDIO
    TITLE "DISC2Track30_42"
    INDEX 01 02:01:69
